<?xml version="1.0" encoding="iso-8859-1"?>
<!-- Generator: Adobe Illustrator 19.0.0, SVG Export Plug-In . SVG Version: 6.00 Build 0)  -->
<svg version="1.1" id="Capa_1" xmlns="http://www.w3.org/2000/svg" xmlns:xlink="http://www.w3.org/1999/xlink" x="0px" y="0px"
	 viewBox="0 0 172.044 172.044" style="enable-background:new 0 0 172.044 172.044;" xml:space="preserve">
<g>
	<g>
		<g>
			<g>
				<path style="fill:#C75400;" d="M111.629,38.152c0-0.752,12.912-22.816,37.493-22.816c0,0,1.49,30.839-15.146,51.398
					L111.629,38.152z"/>
				<path style="fill:#FFFFFF;" d="M118.087,40.264c0-0.531,8.826-16.093,25.63-16.093c0,0,1.019,21.752-10.354,36.254
					L118.087,40.264z"/>
			</g>
			<g>
				<path style="fill:#C75400;" d="M60.415,38.152c0-0.752-12.912-22.816-37.493-22.816c0,0-1.49,30.839,15.146,51.398
					L60.415,38.152z"/>
				<path style="fill:#FFFFFF;" d="M53.957,40.264c0-0.531-8.826-16.093-25.63-16.093c0,0-1.019,21.752,10.354,36.254L53.957,40.264
					z"/>
			</g>
		</g>
		<path style="fill:#DB5C00;" d="M153.697,85.365c11.36,2.929,16.436,11.227,16.436,11.227
			c-1.692-30.263-45.458-67.243-84.111-67.243c-38.654,0-82.419,36.979-84.111,67.243c0,0,5.076-8.298,16.435-11.227
			c0,0-21.753,12.447-17.886,34.413c10.393-13.179,39.88-21.477,53.899-14.644c14.019,6.833,12.568,19.525,14.26,29.531
			c0.961,5.688,2.119,11.884,5.942,14.985c2.903,2.355,8.121,2.343,11.46,2.343c3.338,0,8.556,0.012,11.46-2.343
			c3.824-3.101,4.98-9.297,5.942-14.985c1.692-10.006,0.241-22.698,14.26-29.531c14.019-6.834,43.505,1.464,53.899,14.644
			C175.451,97.813,153.697,85.365,153.697,85.365z"/>
		<g>
			<path style="fill:#FFFFFF;" d="M171.587,119.778c-6.997-6.457-51.729-18.47-71.82,15.578c0,0-2.008-17.005,0-20.469
				C107.671,101.252,139.925,79.279,171.587,119.778z"/>
			<path style="fill:#FFFFFF;" d="M0.457,119.778c6.997-6.457,51.729-18.47,71.82,15.578c0,0,2.008-17.005,0-20.469
				C64.374,101.252,32.119,79.279,0.457,119.778z"/>
		</g>
		<path style="fill:#FFFFFF;" d="M86.022,140.092l-12.38,10.056c0,0,2.007,6.56,12.38,6.56c10.373,0,12.38-6.56,12.38-6.56
			L86.022,140.092z"/>
		<path style="fill:#DB5C00;" d="M54.36,99.564c14.019,7.862,12.568,22.464,14.26,33.977c0.961,6.543,2.119,13.672,5.942,17.241
			c2.903,2.71,8.121,2.696,11.46,2.696c3.338,0,8.556,0.014,11.46-2.696c3.824-3.568,4.98-10.697,5.942-17.241
			c1.692-11.513,0.241-26.114,14.26-33.977C131.703,91.702,40.341,91.702,54.36,99.564z"/>
		<g>
			<g>
				<path style="fill:#263138;" d="M99.763,89.341c0,0,13.387-2.316,20.091-11.897c0,0-6.396-7.027-14.364-1.103
					C100.139,80.317,99.763,89.341,99.763,89.341z"/>
				<g>
					<ellipse style="fill:#DB8B08;" cx="109.327" cy="79.882" rx="3.937" ry="3.975"/>
					<ellipse style="fill:#FFFFFF;" cx="108.332" cy="79.279" rx="1.481" ry="1.496"/>
				</g>
			</g>
			<g>
				<path style="fill:#263138;" d="M72.281,89.341c0,0-13.387-2.316-20.091-11.897c0,0,6.396-7.027,14.365-1.103
					C71.904,80.317,72.281,89.341,72.281,89.341z"/>
				<g>
					<ellipse style="fill:#DB8B08;" cx="62.717" cy="79.882" rx="3.937" ry="3.975"/>
					<ellipse style="fill:#FFFFFF;" cx="61.721" cy="79.279" rx="1.481" ry="1.496"/>
				</g>
			</g>
		</g>
		<g>
			<path style="fill:#263138;" d="M86.022,136.272c-5.12,0-9.118,1.101-11.067,3.614c0,0,5.922,8.929,11.067,8.929
				c5.145,0,11.067-8.929,11.067-8.929C95.14,137.373,91.141,136.272,86.022,136.272z"/>
			<path style="opacity:0.8;fill:#3C454A;" d="M86.022,138.155c4.621,0,8.463,0.551,11.043,1.767
				c0.014-0.021,0.023-0.035,0.023-0.035c-1.949-2.514-5.948-3.614-11.067-3.614c-5.12,0-9.118,1.101-11.067,3.614
				c0,0,0.009,0.014,0.024,0.035C77.559,138.706,81.401,138.155,86.022,138.155z"/>
		</g>
	</g>
	<path style="opacity:0.12;fill:#FFFFFF;" d="M86.022,29.35c-9.098,0-18.475,2.068-27.524,5.596
		c-4.427-6.294-16.477-19.61-35.576-19.61c0,0-0.905,18.769,6.595,36.784C13.847,65.077,2.746,81.65,1.911,96.592
		c0,0,5.076-8.298,16.435-11.227c0,0-21.75,12.446-17.886,34.408c-0.001,0.001-0.002,0.003-0.003,0.004
		c0.001-0.001,0.002-0.002,0.003-0.003c0,0.001,0,0.002,0,0.003c0.003-0.004,0.007-0.008,0.011-0.013
		c6.566-6.025,45.885-16.844,67.438,9.342c0.207,1.906,0.409,3.775,0.711,5.559c0.422,2.495,0.881,5.088,1.587,7.474
		c0.793,3.088,1.9,5.874,3.614,7.863l-0.179,0.146c0,0,2.007,6.559,12.38,6.559V29.35z"/>
</g>
<g>
</g>
<g>
</g>
<g>
</g>
<g>
</g>
<g>
</g>
<g>
</g>
<g>
</g>
<g>
</g>
<g>
</g>
<g>
</g>
<g>
</g>
<g>
</g>
<g>
</g>
<g>
</g>
<g>
</g>
</svg>
